<svg xmlns="http://www.w3.org/2000/svg" width="186.33" height="130.659" viewBox="0 0 186.33 130.659">
  <g id="Group_1" data-name="Group 1" transform="translate(-565.568 -206.617)">
    <g id="Group_2" data-name="Group 2">
      <path id="Path_1" data-name="Path 1" d="M715.175,284.953a4.443,4.443,0,0,1-3.428-5.266l14.712-69.546a4.443,4.443,0,0,1,8.694,1.839l-14.712,69.546a4.443,4.443,0,0,1-5.266,3.427Zm0,0" fill="#0c0c0c"/>
      <path id="Path_2" data-name="Path 2" d="M602.292,284.953a4.443,4.443,0,0,1-5.266-3.427L582.314,211.98a4.443,4.443,0,0,1,8.693-1.839l14.712,69.546a4.442,4.442,0,0,1-3.427,5.266Zm0,0" fill="#0c0c0c"/>
    </g>
    <g id="Group_3" data-name="Group 3">
      <path id="Path_3" data-name="Path 3" d="M599.989,323.508h20.652v3.442a10.326,10.326,0,0,1-10.326,10.326h0a10.326,10.326,0,0,1-10.326-10.326Z" fill="#7e7e83"/>
      <path id="Path_4" data-name="Path 4" d="M696.826,323.508h20.652v3.442a10.327,10.327,0,0,1-10.326,10.326h0a10.326,10.326,0,0,1-10.326-10.326Z" fill="#7e7e83"/>
    </g>
    <g id="Group_4" data-name="Group 4">
      <path id="Path_5" data-name="Path 5" d="M738.4,274.61H579.069a6.426,6.426,0,0,0-6.395,6.457V323.13a6.425,6.425,0,0,0,6.395,6.458H738.4a6.424,6.424,0,0,0,6.394-6.458V281.067A6.424,6.424,0,0,0,738.4,274.61Z" fill="#f1f1f1"/>
      <path id="Path_6" data-name="Path 6" d="M637.852,302.1H565.568v13.768a6.884,6.884,0,0,0,6.885,6.885H745.014a6.883,6.883,0,0,0,6.884-6.885V302.1Zm0,0" fill="#0c0c0c"/>
      <path id="Path_7" data-name="Path 7" d="M582.778,302.1H751.9V288.33a6.882,6.882,0,0,0-6.883-6.883H572.453a6.883,6.883,0,0,0-6.885,6.883V302.1Zm0,0" fill="#2b2b2a"/>
      <rect id="Rectangle_1" data-name="Rectangle 1" width="6.883" height="6.884" transform="translate(576.828 298.657)" fill="#7acc5b"/>
      <rect id="Rectangle_2" data-name="Rectangle 2" width="6.883" height="6.884" transform="translate(733.851 298.657)" fill="#bf0b01"/>
      <rect id="Rectangle_3" data-name="Rectangle 3" width="6.884" height="6.884" transform="translate(590.596 298.657)" fill="#7acc5b"/>
      <rect id="Rectangle_4" data-name="Rectangle 4" width="6.883" height="6.884" transform="translate(604.365 298.657)" fill="#7acc5b"/>
      <rect id="Rectangle_5" data-name="Rectangle 5" width="6.884" height="6.884" transform="translate(618.132 298.657)" fill="#d1dc44"/>
      <rect id="Rectangle_6" data-name="Rectangle 6" width="6.883" height="6.884" transform="translate(631.901 298.657)" fill="#d1dc44"/>
    </g>
    <g id="Group_6" data-name="Group 6">
      <g id="Group_5" data-name="Group 5">
        <path id="Path_8" data-name="Path 8" d="M670.867,259.636a17.168,17.168,0,0,0-24.28-.021l-.02.021-4.893-4.846a24.058,24.058,0,0,1,34.023-.055l.055.055Zm0,0" fill="none" stroke="#fff" stroke-miterlimit="10" stroke-width="0.5"/>
        <path id="Path_9" data-name="Path 9" d="M690.363,240.17a44.748,44.748,0,0,0-63.282-.01l-.01.01-4.841-4.876a51.632,51.632,0,0,1,73.007,0Zm0,0" fill="none" stroke="#fff" stroke-miterlimit="10" stroke-width="0.5"/>
        <path id="Path_10" data-name="Path 10" d="M670.867,259.636a17.168,17.168,0,0,0-24.28-.021l-.02.021-4.893-4.846a24.058,24.058,0,0,1,34.023-.055l.055.055Zm0,0" fill="none" stroke="#fff" stroke-miterlimit="10" stroke-width="0.5"/>
        <path id="Path_11" data-name="Path 11" d="M690.363,240.17a44.748,44.748,0,0,0-63.282-.01l-.01.01-4.841-4.876a51.632,51.632,0,0,1,73.007,0Zm0,0" fill="none" stroke="#fff" stroke-miterlimit="10" stroke-width="0.5"/>
        <path id="Path_12" data-name="Path 12" d="M670.867,259.636a17.168,17.168,0,0,0-24.28-.021l-.02.021-4.893-4.846a24.058,24.058,0,0,1,34.023-.055l.055.055Zm0,0" fill="none" stroke="#fff" stroke-miterlimit="10" stroke-width="0.5"/>
        <path id="Path_13" data-name="Path 13" d="M680.618,249.9a30.978,30.978,0,0,0-43.8,0l-4.866-4.866a37.84,37.84,0,0,1,53.516-.022l.021.022Zm0,0" fill="none" stroke="#fff" stroke-miterlimit="10" stroke-width="0.5"/>
      </g>
      <rect id="Rectangle_7" data-name="Rectangle 7" width="9.603" height="9.605" rx="4.801" transform="translate(653.932 259.98)" fill="none" stroke="#fff" stroke-miterlimit="10" stroke-width="0.5"/>
    </g>
  </g>
</svg>
