<svg xmlns="http://www.w3.org/2000/svg" width="64" height="65" viewBox="0 0 64 65">
  <g id="Vector_Smart_Object1" data-name="Vector Smart Object1" transform="translate(-10.744 -10.74)">
    <path id="Path_17" data-name="Path 17" d="M53.138,33.488a2.614,2.614,0,1,1,2.589-2.615A2.605,2.605,0,0,1,53.138,33.488Zm0-4.121a1.508,1.508,0,1,0,1.493,1.507A1.5,1.5,0,0,0,53.138,29.366Z" fill="#e50001"/>
    <path id="Path_18" data-name="Path 18" d="M61.3,33.488a2.615,2.615,0,1,1,2.589-2.615A2.6,2.6,0,0,1,61.3,33.488Zm0-4.122A1.508,1.508,0,1,0,62.8,30.873,1.5,1.5,0,0,0,61.3,29.366Z" fill="#e50001"/>
    <path id="Path_19" data-name="Path 19" d="M53.138,45.854a2.615,2.615,0,1,1,2.589-2.615A2.6,2.6,0,0,1,53.138,45.854Zm0-4.122a1.508,1.508,0,1,0,1.493,1.507A1.5,1.5,0,0,0,53.138,41.732Z" fill="#e50001"/>
    <path id="Path_20" data-name="Path 20" d="M53.138,54.1a2.615,2.615,0,1,1,2.589-2.615A2.6,2.6,0,0,1,53.138,54.1Zm0-4.122a1.508,1.508,0,1,0,1.493,1.508A1.5,1.5,0,0,0,53.138,49.976Z" fill="#e50001"/>
    <path id="Path_21" data-name="Path 21" d="M61.3,55.02a2.5,2.5,0,0,1-2.482-2.505V43.239a2.482,2.482,0,1,1,4.964,0v9.275A2.5,2.5,0,0,1,61.3,55.02Zm0-13.4a1.61,1.61,0,0,0-1.6,1.616v9.275a1.6,1.6,0,1,0,3.2,0V43.239A1.61,1.61,0,0,0,61.3,41.623Z" fill="#e50001"/>
    <rect id="Rectangle_1" data-name="Rectangle 1" width="3.138" height="1.107" transform="translate(55.652 14.862)" fill="#e50001"/>
    <path id="Path_22" data-name="Path 22" d="M53.115,75.74a6.69,6.69,0,0,1-6.649-6.715V65.016H15.695a4.98,4.98,0,0,1-4.951-5v-32.2a6.336,6.336,0,0,1,6.3-6.359H46.466V17.453a6.689,6.689,0,0,1,6.649-6.714h8.21a6.69,6.69,0,0,1,6.65,6.714v4.009h.472a6.335,6.335,0,0,1,6.3,6.359v32.2a4.979,4.979,0,0,1-4.949,5h-1.82v4.009a6.69,6.69,0,0,1-6.651,6.715Zm-5.553-6.715a5.586,5.586,0,0,0,5.552,5.607h8.21a5.587,5.587,0,0,0,5.554-5.607V37.61H47.563Zm20.413-5.116H69.8a3.877,3.877,0,0,0,3.853-3.891V50.876l-.8.792a6.229,6.229,0,0,1-4.4,1.817h-.472ZM11.841,60.018a3.877,3.877,0,0,0,3.854,3.891H46.466V53.485H17.042a6.227,6.227,0,0,1-4.4-1.816l-.8-.793Zm5.2-37.449a5.232,5.232,0,0,0-5.2,5.252V47.127a5.233,5.233,0,0,0,5.2,5.252H46.466V43.234l-.675.324a6.567,6.567,0,0,1-2.859.653,6.737,6.737,0,0,1,0-13.474,6.573,6.573,0,0,1,2.859.653l.675.323V22.57ZM67.975,52.378h.472a5.232,5.232,0,0,0,5.2-5.251V27.821a5.232,5.232,0,0,0-5.2-5.252h-.472ZM42.932,31.844a5.63,5.63,0,0,0,0,11.259,5.489,5.489,0,0,0,3.347-1.153l.188-.143V33.141L46.278,33A5.489,5.489,0,0,0,42.932,31.844Zm10.183-20a5.586,5.586,0,0,0-5.552,5.606V36.5H66.878V17.453a5.587,5.587,0,0,0-5.554-5.606Z" fill="#e50001"/>
    <rect id="Rectangle_2" data-name="Rectangle 2" width="9.261" height="1.107" transform="translate(16.868 59.592)" fill="#e50001"/>
    <rect id="Rectangle_3" data-name="Rectangle 3" width="2.117" height="1.107" transform="translate(29.115 59.592)" fill="#e50001"/>
    <rect id="Rectangle_4" data-name="Rectangle 4" width="2.117" height="1.107" transform="translate(34.219 59.592)" fill="#e50001"/>
  </g>
</svg>
