<svg xmlns="http://www.w3.org/2000/svg" width="501.999" height="446.124" viewBox="0 0 501.999 446.124">
  <g id="Computer" transform="translate(-669 -34.735)">
    <path id="Path_1" data-name="Path 1" d="M777.781,480.859a6.8,6.8,0,0,1,0-13.605h34a42.44,42.44,0,0,0,42.392-42.392v-27.49H694.909A25.939,25.939,0,0,1,669,371.463V60.644a25.939,25.939,0,0,1,25.909-25.909h450.182A25.945,25.945,0,0,1,1171,60.644v310.82a25.939,25.939,0,0,1-25.91,25.909H985.828v27.489a42.44,42.44,0,0,0,42.392,42.392h34a6.8,6.8,0,1,1,0,13.605Zm89.995-56a55.4,55.4,0,0,1-11.8,34.321l-6.284,8.071H990.309l-6.284-8.071a55.4,55.4,0,0,1-11.8-34.321v-27.49H867.776ZM682.6,371.464a12.319,12.319,0,0,0,12.3,12.3h450.182a12.319,12.319,0,0,0,12.3-12.3V304.431H682.6Zm12.3-323.123a12.318,12.318,0,0,0-12.3,12.3v230.18H1157.4V60.644a12.318,12.318,0,0,0-12.305-12.3Z" fill="#d80321"/>
    <path id="Path_2" data-name="Path 2" d="M920,351.841a7.738,7.738,0,1,1,7.737-7.738A7.746,7.746,0,0,1,920,351.841Z" fill="#d80321"/>
    <path id="Path_3" data-name="Path 3" d="M848.478,209.615A6.8,6.8,0,0,1,843.667,198l83.413-83.414a6.8,6.8,0,0,1,9.622,9.622l-83.414,83.414A6.757,6.757,0,0,1,848.478,209.615Z" fill="#d80321"/>
    <path id="Path_4" data-name="Path 4" d="M948.1,207.768a6.8,6.8,0,0,1-4.811-11.614l33.229-33.228a6.8,6.8,0,0,1,9.621,9.622l-33.229,33.227A6.76,6.76,0,0,1,948.1,207.768Z" fill="#d80321"/>
  </g>
</svg>
